<svg xmlns="http://www.w3.org/2000/svg" viewBox="0 0 200 200" width="200" height="200">
  <defs>
    <linearGradient id="grad1" x1="0%" y1="0%" x2="100%" y2="100%">
      <stop offset="0%" style="stop-color:#3b82f6;stop-opacity:1" />
      <stop offset="100%" style="stop-color:#8b5cf6;stop-opacity:1" />
    </linearGradient>
    <linearGradient id="grad2" x1="0%" y1="0%" x2="100%" y2="100%">
      <stop offset="0%" style="stop-color:#60a5fa;stop-opacity:1" />
      <stop offset="100%" style="stop-color:#a78bfa;stop-opacity:1" />
    </linearGradient>
  </defs>
  
  <!-- Background Circle -->
  <circle cx="100" cy="100" r="95" fill="url(#grad1)" opacity="0.1"/>
  
  <!-- Main Circle Background -->
  <circle cx="100" cy="100" r="85" fill="url(#grad1)"/>
  
  <!-- Chart Lines (Stock trend) -->
  <g stroke="white" stroke-width="4" fill="none" stroke-linecap="round" stroke-linejoin="round">
    <!-- Upward trend line -->
    <path d="M 40 120 L 60 110 L 80 100 L 100 80 L 120 90 L 140 70 L 160 60" opacity="0.8"/>
    
    <!-- Additional trend line -->
    <path d="M 40 140 L 60 135 L 80 125 L 100 115 L 120 110 L 140 100 L 160 95" opacity="0.5"/>
  </g>
  
  <!-- Candlestick bars -->
  <g fill="url(#grad2)" stroke="white" stroke-width="2">
    <rect x="55" y="105" width="8" height="15" rx="1"/>
    <rect x="75" y="95" width="8" height="20" rx="1"/>
    <rect x="95" y="75" width="8" height="25" rx="1"/>
    <rect x="115" y="85" width="8" height="20" rx="1"/>
    <rect x="135" y="65" width="8" height="30" rx="1"/>
  </g>
  
  <!-- AI Brain/Neural Network nodes -->
  <g fill="white" opacity="0.9">
    <circle cx="100" cy="80" r="5"/>
    <circle cx="85" cy="95" r="4"/>
    <circle cx="115" cy="95" r="4"/>
    <circle cx="100" cy="110" r="5"/>
    
    <!-- Connection lines -->
    <g stroke="white" stroke-width="1.5" opacity="0.6">
      <line x1="100" y1="80" x2="85" y2="95"/>
      <line x1="100" y1="80" x2="115" y2="95"/>
      <line x1="85" y1="95" x2="100" y2="110"/>
      <line x1="115" y1="95" x2="100" y2="110"/>
    </g>
  </g>
  
  <!-- Upward Arrow (growth indicator) -->
  <g fill="white" opacity="0.8">
    <path d="M 155 55 L 165 45 L 175 55 L 168 55 L 168 70 L 162 70 L 162 55 Z"/>
  </g>
  
  <!-- Sparkle effect -->
  <g fill="white" opacity="0.7">
    <circle cx="50" cy="65" r="2"/>
    <circle cx="150" cy="125" r="2"/>
    <circle cx="75" cy="140" r="1.5"/>
  </g>
</svg>